inDegrees=no
num_controls=7
num_derivatives=13
num_iterations=116
num_multipliers=7
num_parameters=0
num_slacks=7
num_states=26
objective=4.934475
objective_accelerations=0.543119
objective_balance=0.018177
objective_effort=0.151208
objective_height=4.195519
objective_ligament=0.026452
solver_duration=1308.690114
status=Solve_Succeeded
success=true
DataType=double
version=3
OpenSimVersion=4.4-2022-07-23-0e9fedc
endheader
time	/jointset/ground_pelvis/pelvis_tilt/value	/jointset/ground_pelvis/pelvis_tx/value	/jointset/ground_pelvis/pelvis_ty/value	/jointset/hip_l/hip_flexion_l/value	/jointset/hip_l/hip_adduction_l/value	/jointset/hip_l/hip_rotation_l/value	/jointset/back/lumbar_extension/value	/jointset/patellofemoral_l/patellar_flexion_l/value	/jointset/knee_l/knee_flexion_l/value	/jointset/knee_l/knee_adduction_l/value	/jointset/knee_l/knee_rotation_l/value	/jointset/ankle_l/ankle_angle_l/value	/jointset/subtalar_l/subtalar_angle_l/value	/jointset/ground_pelvis/pelvis_tilt/speed	/jointset/ground_pelvis/pelvis_tx/speed	/jointset/ground_pelvis/pelvis_ty/speed	/jointset/hip_l/hip_flexion_l/speed	/jointset/hip_l/hip_adduction_l/speed	/jointset/hip_l/hip_rotation_l/speed	/jointset/back/lumbar_extension/speed	/jointset/patellofemoral_l/patellar_flexion_l/speed	/jointset/knee_l/knee_flexion_l/speed	/jointset/knee_l/knee_adduction_l/speed	/jointset/knee_l/knee_rotation_l/speed	/jointset/ankle_l/ankle_angle_l/speed	/jointset/subtalar_l/subtalar_angle_l/speed	/forceset/tau_hip_flexion_l	/forceset/tau_hip_adduction_l	/forceset/tau_hip_rotation_l	/forceset/tau_knee_flexion_l	/forceset/tau_ankle_angle_l	/forceset/tau_subtalar_angle_l	/forceset/tau_lumbar_extension	lambda_cid13_p0	lambda_cid13_p1	lambda_cid13_p2	lambda_cid13_p3	lambda_cid13_p4	lambda_cid13_p5	lambda_cid14_p0	/jointset/ground_pelvis/pelvis_tilt/accel	/jointset/ground_pelvis/pelvis_tx/accel	/jointset/ground_pelvis/pelvis_ty/accel	/jointset/hip_l/hip_flexion_l/accel	/jointset/hip_l/hip_adduction_l/accel	/jointset/hip_l/hip_rotation_l/accel	/jointset/back/lumbar_extension/accel	/jointset/patellofemoral_l/patellar_flexion_l/accel	/jointset/knee_l/knee_flexion_l/accel	/jointset/knee_l/knee_adduction_l/accel	/jointset/knee_l/knee_rotation_l/accel	/jointset/ankle_l/ankle_angle_l/accel	/jointset/subtalar_l/subtalar_angle_l/accel	gamma_cid13_p0	gamma_cid13_p1	gamma_cid13_p2	gamma_cid13_p3	gamma_cid13_p4	gamma_cid13_p5	gamma_cid14_p0
0.5	-0.1635435337693173	0.05772399953093812	0.7993980593895231	0.8311936265776473	-0.3769860507949198	-0.01103713410310015	-0.3928539199706752	0.8631141332358697	0.8631141332358818	-0.08120605419937268	-0.1745142122143666	0.3137943344831948	0.1450788249660709	-0.6106458508465827	-0.1339396814072411	-0.4062707749079198	1.977913763228272	0.01806580459865435	0.5460135516541322	-0.3245227551079806	1.745853827990671	1.745853827990677	0.2030615836782457	0.0003916194336173046	0.5275493755469933	0.2319154535106288	-0.08450968443083538	0.0262671043204355	0.009516340069964503	-0.1909868093626613	-0.02164590280667513	0.01153197534895058	0.1044394501107997	-31.7003784769305	0.6836821167617732	-0.5516490684023088	4.004300025013692	-443.958799795189	-67.67250888840833	-8.745846736276091	0.1078566273904774	0.1938757121788628	-0.3698194681628444	-0.8260162715789203	0.1508540850501859	-0.5280170616157467	1.188488123089478	-1.351824235906244	-1.351824235906321	-0.2870617944469928	0.06672269387248494	-0.7807764653001659	0.1485096648025784	-2.036569968052633e-07	-3.12672161058559e-06	1.704003279885329e-06	-3.067699518889579e-07	-4.625569337192969e-07	-2.400719724952389e-06	-4.497823400735011e-07
0.51	-0.1696430275891192	0.05639457102031793	0.7953178586489541	0.8509272977029188	-0.3767994601494544	-0.00560573815779305	-0.3960401154150166	0.8805018299953263	0.8805018299952814	-0.07919167652500834	-0.1745104816277188	0.3190294438773609	0.147402674071804	-0.6091740061560603	-0.131924155275269	-0.4096774027105231	1.968543396429953	0.0192480557892451	0.5402066508144184	-0.3126719855686972	1.731427081494884	1.731427081494828	0.1998210236251461	0.0003553567251550417	0.5193994191543717	0.232814219800284	-0.08843280881672239	0.02760023798438004	0.008939796231819218	-0.1925818472489951	-0.02352713843825412	0.01240903318082852	0.1074933986606343	-32.37907427535758	0.4721157725373756	-0.5756088079548659	4.120108477419525	-446.4666307812458	-67.87136979298606	-8.020653127425765	0.178654242339464	0.2086046869225909	-0.3123744050587281	-1.034139568986296	0.1012938226507099	-0.6162885298364309	1.190023598447654	-1.526778732182308	-1.526778732191754	-0.3419090678012431	-0.03848645965509109	-0.8432036180366453	0.05486660119579716	-1.922526897561682e-07	-3.134077356063317e-06	1.566052063826263e-06	-3.166979262546049e-07	-4.289820655244782e-07	-2.343323429811253e-06	-4.333821557340334e-07
0.52	-0.1757254417915479	0.0550859404956586	0.7912063336366112	0.8705589466232337	-0.3766011703547903	-0.0002342636076529842	-0.3991064727181474	0.8977375235145462	0.8977375235146023	-0.07720957564411716	-0.1745070508081998	0.3241808340292173	0.1497343721384666	-0.6072299273673385	-0.1297800842150691	-0.4125356292629018	1.957509322230421	0.02040563444299934	0.5340292725873022	-0.3005551268653533	1.715453179968412	1.715453179968292	0.1966062252897888	0.0003316657586948155	0.5108055270900176	0.2334852456959259	-0.09235593320190322	0.02893337164979504	0.008363252388793155	-0.1941768851347186	-0.02540837406928675	0.01328609101504085	0.1105473472107937	-33.05513192744049	0.2506683506503828	-0.5872339569307975	4.220962660576862	-448.9512901259235	-68.13569191035921	-7.322998390653315	0.2023034470305376	0.2195846978240252	-0.2601392181180402	-1.158757751821741	0.1459195776818617	-0.6021125390977767	1.241705955901791	-1.661255242042998	-1.661255242043202	-0.2819094508986831	0.06923704227080738	-0.8695635996472824	0.1029615859988535	-1.920296051650028e-07	-2.925757437885151e-06	1.629178476406117e-06	-2.878844816748853e-07	-4.315448039090897e-07	-2.236199732452356e-06	-4.252445824215135e-07
0.53	-0.1817861766923339	0.05379944189313634	0.78706900491895	0.8900720467984273	-0.3763914868635048	0.005074097885114419	-0.4020502972136453	0.9148058798165412	0.9148058798166934	-0.07525983417786997	-0.1745035599706889	0.3292442545263045	0.152071558649527	-0.6048435274539364	-0.1274924622495283	-0.4148335871540814	1.944830637016751	0.0215212788406944	0.5275720061693863	-0.2881687780218948	1.697969911473086	1.697969911473058	0.1933511028145955	0.0003526815478896524	0.5018234024446613	0.233908261572784	-0.09608272912351454	0.0300568427325737	0.007746171095474873	-0.1962918323639729	-0.02658788912399086	0.01399466797791658	0.1134753675325756	-33.52520759007976	0.09561135077019167	-0.642894644086543	4.135476130844983	-451.5821872260446	-68.33180948309423	-6.663046451034796	0.2678091314694862	0.2373725003637961	-0.2002315855513037	-1.36446687111938	0.09287803899962788	-0.6785876305525593	1.243248480873393	-1.82900380345891	-1.829003803445078	-0.3463162781045633	-0.03332256638521633	-0.9209328379182727	0.005649324063156748	-1.918833008557778e-07	-2.720296586554138e-06	1.695648829558238e-06	-2.588670119755696e-07	-4.343912396067986e-07	-2.125143225141045e-06	-4.183062742716619e-07
0.54	-0.1878208474204179	0.05253662382115617	0.7829115751201925	0.909449951528486	-0.3761709486946304	0.01031567592640339	-0.4048690283942569	0.9316919752036028	0.9316919752036203	-0.07334244446550719	-0.1745002302559557	0.334216174588725	0.1544117108664658	-0.6020170928216517	-0.1250439781066515	-0.4165558454823813	1.930470233203762	0.02257656996551736	0.5206725822550698	-0.2755364638861522	1.679000996970509	1.679000996970574	0.1901358750485755	0.0002994407919149555	0.4925054401617711	0.234078386871045	-0.09980952504477725	0.03118031381682133	0.007129089792352316	-0.1984067795925816	-0.02776740417812066	0.01470324494323755	0.1164033878543908	-33.99256859050159	-0.06994523229405099	-0.6854307781892577	4.031092251244345	-454.1901962052454	-68.5943522020528	-6.041092517485754	0.2903103908071335	0.2517571332906713	-0.1449993055421158	-1.495101471685833	0.133848923107164	-0.690544038377668	1.29089901435876	-1.958384443493022	-1.958384443493037	-0.2739305090637444	0.05438573323760288	-0.9367311271547082	0.05238347027961541	-1.918219449435934e-07	-2.517998958117849e-06	1.76581886164138e-06	-2.296238123567008e-07	-4.375515531828278e-07	-2.009735523839829e-06	-4.126948126847625e-07
0.55	-0.1938250351987221	0.05129895604787011	0.7787398273100372	0.9286760463142284	-0.3759402268391722	0.01548689403811911	-0.4075603485764355	0.9483810411822704	0.9483810411822632	-0.07145765432130881	-0.1744974203054439	0.3390931314696613	0.1567520738257764	-0.5987418535468391	-0.122476107644248	-0.4176939365280833	1.914479577566174	0.02355286380081615	0.5135205803174439	-0.2627035340645915	1.658568573007498	1.658568573007634	0.1868064931127926	0.0002510032344097388	0.4828180773243749	0.2339331670087423	-0.1037421755217231	0.03234721970945394	0.006506956894955753	-0.2001386672898656	-0.02969216202392995	0.01531793334501121	0.1194163597104033	-34.71840848431303	-0.1675557267900461	-0.7181395974160705	4.227075458019013	-456.8874991758398	-68.71110008730156	-5.457014526051026	0.3578965204959227	0.2612796026377333	-0.08333485603267995	-1.691449786964939	0.07717588407968959	-0.7354866819365701	1.283095739328671	-2.122133308658456	-2.122133308647864	-0.3650944608160971	-0.03593787260472923	-0.9950229572192919	-0.0569649237228871	-1.883968671576737e-07	-2.192062662014211e-06	1.859131361653457e-06	-1.837555864206732e-07	-4.383084451195348e-07	-1.815015301090951e-06	-4.014293727980556e-07
0.5600000000000001	-0.1997941174193675	0.05008736249919089	0.7745596744190372	0.9477341541081254	-0.3757002107913189	0.02058500044850133	-0.4101226183057595	0.9648584905340738	0.9648584905340631	-0.06960668848276996	-0.1744953906046701	0.343871157903169	0.1590891865446178	-0.5949959812849569	-0.1198291331852833	-0.4182368616515447	1.896872834841723	0.02443540844944091	0.5060502419606456	-0.2497263733120111	1.636677671606359	1.636677671606567	0.1833710141778874	0.0001433907825115207	0.4727193506794917	0.2334283387769634	-0.1076748259987623	0.03351412560305695	0.005884823992813298	-0.2018705549868476	-0.03161691986935507	0.01593262174840231	0.122429331566146	-35.44199123160401	-0.2754725950633761	-0.7378838967673353	4.40600528544637	-459.5668865571168	-68.89556925006096	-4.9104223764509	0.3844369882211486	0.2675779326023821	-0.02596612109397252	-1.818318889058473	0.1150990857725806	-0.7542113222115704	1.319745200562778	-2.250079931118719	-2.2500799311187	-0.2951499088878172	0.0425507543602774	-1.019003888652739	-0.01953820361509615	-1.809353231232718e-07	-1.71775996470976e-06	1.980214823180253e-06	-1.179373289040556e-07	-4.36181231089055e-07	-1.525120052604881e-06	-3.833791589515799e-07
0.5700000000000001	-0.2057237631922822	0.04890274533470254	0.7703770447896758	0.9666085255213362	-0.375451671026753	0.02560793988738126	-0.4125543476820429	0.9811100698954093	0.9811100698952839	-0.06779102591921872	-0.1744938102477513	0.3485465464482663	0.1614197681240223	-0.5908729594660486	-0.1170685700584789	-0.4181885153015696	1.87773955152968	0.02526018122422309	0.4984561593364747	-0.2366116840094706	1.613416482336114	1.61341648233612	0.179778686427921	0.0001468552293517704	0.4623255189302418	0.2326428776290971	-0.1109765164866538	0.03413912138008449	0.005252188978851134	-0.2047059482683012	-0.03189792732984055	0.01644205466773621	0.1250112133935554	-35.63966929766166	-0.3784654675585925	-0.8170035803171921	4.107088848913705	-462.2413178304698	-69.18737074813704	-4.400591192576754	0.435248104923313	0.2841388083438748	0.03523035528532903	-2.000142608282619	0.06409400712448081	-0.7745760943508652	1.308503485945547	-2.397321538627999	-2.397321538658231	-0.3888719833028383	-0.02429881462116093	-1.054562981799509	-0.114830308232002	-1.819448399144585e-07	-1.259137278841444e-06	2.216411066306605e-06	-4.507749042858653e-08	-4.590523966846602e-07	-1.255273653233449e-06	-3.822003632580661e-07
0.58	-0.2116103760817936	0.04774650246260619	0.7661978976922644	0.9852837021901526	-0.3751952980077005	0.03055242462769085	-0.4148546956271508	0.9971224007412365	0.9971224007411872	-0.06601080618782018	-0.1744929038677715	0.3531169986431197	0.1637411390443753	-0.5863894045991853	-0.114154274706885	-0.4175403552617703	1.857033885977421	0.02600205935071366	0.4903593022390445	-0.223450087073036	1.58882796851985	1.588827968519655	0.1762824476678765	8.595497528210167e-06	0.4517320806314545	0.2315862069668463	-0.1142782069750714	0.03476411715723465	0.004619553966638511	-0.2075413415498038	-0.03217893479024099	0.01695148758726176	0.1275930952204287	-35.83598613592341	-0.4906192713959952	-0.8844701014274218	3.785620898606111	-464.9172666345324	-69.54696283928516	-3.926626368558313	0.456543597812319	0.2983243775599013	0.0939966168708735	-2.132795337101463	0.09852015611454426	-0.8547662168633172	1.329126727341588	-2.515544840322458	-2.515544840322488	-0.2759321109031886	0.01420591862785891	-1.058925198560735	-0.07378010649187718	-1.939864359203646e-07	-8.209350729829811e-07	2.602521629655624e-06	3.695277906305987e-08	-5.144795915607467e-07	-1.011537382941547e-06	-4.029936470195715e-07
